HIERARCHY
ROOT Hips
{
	OFFSET 0.000000 0.000000 0.000000
	CHANNELS 6 Xposition Yposition Zposition Zrotation Yrotation Xrotation 
	JOINT LHipJoint
	{
		OFFSET 0.000000 0.000000 0.000000
		CHANNELS 3 Zrotation Yrotation Xrotation
		JOINT LeftUpLeg
		{
			OFFSET 1.363060 -1.794630 0.839290
			CHANNELS 3 Zrotation Yrotation Xrotation
			JOINT LeftLeg
			{
				OFFSET 2.448110 -6.726130 0.000000
				CHANNELS 3 Zrotation Yrotation Xrotation
				JOINT LeftFoot
				{
					OFFSET 2.562200 -7.039590 0.000000
					CHANNELS 3 Zrotation Yrotation Xrotation
					JOINT LeftToeBase
					{
						OFFSET 0.157640 -0.433110 2.322550
						CHANNELS 3 Zrotation Yrotation Xrotation
						End Site
						{
							OFFSET 0.000000 0.000000 0.000000
						}
					}
				}
			}
		}
	}
	JOINT RHipJoint
	{
		OFFSET 0.000000 0.000000 0.000000
		CHANNELS 3 Zrotation Yrotation Xrotation
		JOINT RightUpLeg
		{
			OFFSET -1.305520 -1.794630 0.839290
			CHANNELS 3 Zrotation Yrotation Xrotation
			JOINT RightLeg
			{
				OFFSET -2.542530 -6.985550 0.000000
				CHANNELS 3 Zrotation Yrotation Xrotation
				JOINT RightFoot
				{
					OFFSET -2.568260 -7.056230 0.000000
					CHANNELS 3 Zrotation Yrotation Xrotation
					JOINT RightToeBase
					{
						OFFSET -0.164730 -0.452590 2.363150
						CHANNELS 3 Zrotation Yrotation Xrotation
						End Site
						{
							OFFSET 0.000000 0.000000 0.000000
						}
					}
				}
			}
		}
	}
	JOINT LowerBack
	{
		OFFSET 0.000000 0.000000 0.000000
		CHANNELS 3 Zrotation Yrotation Xrotation
		JOINT Spine
		{
			OFFSET 0.028270 2.035590 -0.193380
			CHANNELS 3 Zrotation Yrotation Xrotation
			JOINT Spine1
			{
				OFFSET 0.056720 2.048850 -0.042750
				CHANNELS 3 Zrotation Yrotation Xrotation
				JOINT Neck
				{
					OFFSET 0.000000 0.000000 0.000000
					CHANNELS 3 Zrotation Yrotation Xrotation
					JOINT Neck1
					{
						OFFSET -0.054170 1.746240 0.172020
						CHANNELS 3 Zrotation Yrotation Xrotation
						JOINT Head
						{
							OFFSET 0.104070 1.761360 -0.123970
							CHANNELS 3 Zrotation Yrotation Xrotation
							End Site
							{
								OFFSET 0.000000 0.000000 0.000000
							}
						}
					}
				}
				JOINT LeftShoulder
				{
					OFFSET 0.000000 0.000000 0.000000
					CHANNELS 3 Zrotation Yrotation Xrotation
					JOINT LeftArm
					{
						OFFSET 3.362410 1.200890 -0.311210
						CHANNELS 3 Zrotation Yrotation Xrotation
						JOINT LeftForeArm
						{
							OFFSET 4.983000 -0.000000 -0.000000
							CHANNELS 3 Zrotation Yrotation Xrotation
							JOINT LeftHand
							{
								OFFSET 3.483560 -0.000000 -0.000000
								CHANNELS 3 Zrotation Yrotation Xrotation
								JOINT LeftFingerBase
								{
									OFFSET 0.000000 0.000000 0.000000
									CHANNELS 3 Zrotation Yrotation Xrotation
									JOINT LeftHandIndex1
									{
										OFFSET 0.715260 -0.000000 -0.000000
										CHANNELS 3 Zrotation Yrotation Xrotation
										End Site
										{
											OFFSET 0.000000 0.000000 0.000000
										}
									}
								}
								JOINT LThumb
								{
									OFFSET 0.000000 0.000000 0.000000
									CHANNELS 3 Zrotation Yrotation Xrotation
									End Site
									{
										OFFSET 0.000000 0.000000 0.000000
									}
								}
							}
						}
					}
				}
				JOINT RightShoulder
				{
					OFFSET 0.000000 0.000000 0.000000
					CHANNELS 3 Zrotation Yrotation Xrotation
					JOINT RightArm
					{
						OFFSET -3.136600 1.374050 -0.404650
						CHANNELS 3 Zrotation Yrotation Xrotation
						JOINT RightForeArm
						{
							OFFSET -5.241900 -0.000000 -0.000000
							CHANNELS 3 Zrotation Yrotation Xrotation
							JOINT RightHand
							{
								OFFSET -3.444170 -0.000000 -0.000000
								CHANNELS 3 Zrotation Yrotation Xrotation
								JOINT RightFingerBase
								{
									OFFSET 0.000000 0.000000 0.000000
									CHANNELS 3 Zrotation Yrotation Xrotation
									JOINT RightHandIndex1
									{
										OFFSET -0.622530 -0.000000 -0.000000
										CHANNELS 3 Zrotation Yrotation Xrotation
										End Site
										{
											OFFSET 0.000000 0.000000 0.000000
										}
									}
								}
								JOINT RThumb
								{
									OFFSET 0.000000 0.000000 0.000000
									CHANNELS 3 Zrotation Yrotation Xrotation
									End Site
									{
										OFFSET 0.000000 0.000000 0.000000
									}
								}
							}
						}
					}
				}
			}
		}
	}
}
MOTION
Frames: 7
Frame Time: 0.008333
4.514228 11.600433 25.081356 -1.354328 -4.107468 98.373780 0.318206 -2.601095 -1.272481 -11.233013 -9.387170 -18.002174 0.615211 10.406477 26.015604 -1.343663 11.318698 7.063277 0.045300 -1.373600 -3.777300 -3.369726 2.143197 -1.949828 21.457847 7.413332 -15.443560 -1.647295 -10.942475 27.802096 0.549889 -9.614115 -5.626068 -0.006000 0.500100 -1.374300 -2.799646 1.094161 2.462660 0.943041 0.976526 -7.256279 2.247741 0.651612 -11.367480 -10.546466 -6.803678 -19.815242 7.111549 -5.737849 1.550052 3.212900 -2.840500 9.448900 5.187102 -6.093421 -0.474639 -43.172013 -47.128918 3.380345 52.653281 -46.807898 -26.566795 0.505570 -0.155699 -0.460932 20.968144 6.794455 2.600100 -7.125000 0.000000 0.000000 -5.377800 37.386700 1.011100 -4.022652 7.209260 -0.474210 28.775746 42.489263 4.318521 -46.363518 46.940802 -20.547136 -1.281945 -0.110465 -9.086209 -26.338556 9.166867 -4.259500 7.125000 0.000000 0.000000 1.344800 -19.879900 0.807600 
4.515239 11.600433 25.074786 -1.332537 -4.065566 98.359219 0.325598 -2.601562 -1.274362 -11.249968 -9.342320 -18.052083 0.626097 10.431500 26.093188 -1.313967 11.163966 7.103466 0.048000 -1.413600 -3.887600 -3.371924 2.145569 -1.949163 21.569896 7.408745 -15.447879 -1.643300 -10.943712 27.794438 0.546300 -9.581630 -5.603006 -0.006600 0.525800 -1.444700 -2.696933 1.079739 2.396901 0.934137 0.971960 -7.254509 2.181114 0.635677 -11.384636 -10.563035 -6.815885 -19.828452 7.183918 -5.733117 1.644013 3.255000 -2.828000 9.504600 5.226610 -6.151800 -0.551373 -41.417704 -47.599690 2.500987 52.677691 -46.814529 -26.596839 0.529267 -0.173919 0.355497 20.511131 6.153778 2.306000 -7.125000 0.000000 0.000000 -5.713000 36.689900 1.172400 -4.063494 7.296529 -0.539483 27.405910 43.044605 3.378318 -46.325769 46.981897 -20.543701 -1.276348 -0.078290 -8.669712 -25.890112 9.340309 -4.242000 7.125000 0.000000 0.000000 1.665000 -19.753000 1.004700 
4.516148 11.600332 25.068823 -1.315296 -4.023279 98.353870 0.333081 -2.602410 -1.276998 -11.264537 -9.286583 -18.110965 0.636493 10.455016 26.166172 -1.286928 11.020244 7.135418 0.050200 -1.445600 -3.975700 -3.374201 2.148037 -1.948072 21.679142 7.410785 -15.464713 -1.639755 -10.946242 27.789479 0.543182 -9.554833 -5.583961 -0.007000 0.540900 -1.486400 -2.592699 1.064821 2.323487 0.925082 0.966802 -7.251832 2.112924 0.619083 -11.392858 -10.571283 -6.818761 -19.859302 7.240880 -5.717952 1.736177 3.290500 -2.811700 9.561900 5.268747 -6.211747 -0.630937 -39.580250 -48.057609 1.541079 52.648734 -46.819329 -26.591497 0.552986 -0.193545 1.144415 20.076688 5.464198 2.009200 -7.125000 0.000000 0.000000 -6.022800 35.948400 1.346100 -4.105390 7.382274 -0.605069 25.975683 43.607841 2.381311 -46.245931 47.014220 -20.513778 -1.268938 -0.046582 -8.247132 -25.451625 9.485418 -4.212300 7.125000 0.000000 0.000000 1.975400 -19.656000 1.196500 
4.516957 11.600029 25.063769 -1.303423 -3.983443 98.354947 0.340454 -2.603309 -1.280064 -11.280677 -9.219122 -18.174773 0.645902 10.475689 26.230745 -1.263504 10.894785 7.162891 0.052100 -1.472900 -4.051000 -3.376213 2.150730 -1.946839 21.781322 7.417857 -15.493755 -1.637324 -10.951451 27.792103 0.539835 -9.526683 -5.571410 -0.007400 0.554900 -1.524700 -2.493253 1.049215 2.245007 0.915173 0.960376 -7.247640 2.044665 0.601387 -11.389905 -10.570797 -6.820028 -19.911234 7.301719 -5.700417 1.832582 3.326200 -2.792800 9.625100 5.312552 -6.269851 -0.710393 -37.647799 -48.501571 0.486059 52.571423 -46.826825 -26.555638 0.575715 -0.215449 1.850347 19.632266 4.736001 1.711200 -7.125000 0.000000 0.000000 -6.334900 35.171600 1.537000 -4.149074 7.467115 -0.669770 24.492160 44.182159 1.318118 -46.131134 47.040640 -20.462082 -1.259018 -0.015395 -7.818986 -25.005403 9.590210 -4.162700 7.125000 0.000000 0.000000 2.287800 -19.602900 1.388700 
4.517664 11.599624 25.059523 -1.299239 -3.955270 98.359377 0.347029 -2.604188 -1.282863 -11.308181 -9.146675 -18.236212 0.653514 10.493179 26.284314 -1.245131 10.794699 7.177936 0.052800 -1.483400 -4.080000 -3.377460 2.153406 -1.945698 21.865654 7.421700 -15.535635 -1.637190 -10.959888 27.806070 0.536155 -9.493763 -5.550591 -0.007900 0.574600 -1.578900 -2.416760 1.037201 2.164540 0.904231 0.956964 -7.242825 1.985796 0.587043 -11.379760 -10.559368 -6.822637 -19.986332 7.361512 -5.685961 1.937194 3.357900 -2.774300 9.696600 5.357887 -6.325248 -0.788103 -35.638725 -48.937299 -0.652252 52.450742 -46.837724 -26.492894 0.596597 -0.239817 2.470962 19.155820 3.993557 1.419900 -7.125000 0.000000 0.000000 -6.669700 34.388100 1.747000 -4.193409 7.549100 -0.731565 22.960977 44.756800 0.197877 -45.987527 47.063498 -20.393057 -1.246625 0.014277 -7.420914 -24.560487 9.652964 -4.095300 7.125000 0.000000 0.000000 2.596000 -19.594400 1.576700 
4.518271 11.599119 25.056188 -1.302702 -3.938817 98.368833 0.352466 -2.605144 -1.285262 -11.346462 -9.067117 -18.297518 0.659250 10.507178 26.326057 -1.231092 10.720369 7.191566 0.052100 -1.473600 -4.052900 -3.377484 2.155550 -1.944676 21.930527 7.404847 -15.598195 -1.639323 -10.971510 27.831894 0.530937 -9.443763 -5.501616 -0.008700 0.601100 -1.651900 -2.368183 1.032467 2.079333 0.891549 0.960900 -7.238324 1.935271 0.578834 -11.363582 -10.525955 -6.820822 -20.072656 7.406227 -5.674058 2.044627 3.377100 -2.757200 9.769700 5.405385 -6.378203 -0.862602 -33.566659 -49.373107 -1.852118 52.280569 -46.847957 -26.397551 0.615030 -0.265486 2.990677 18.668926 3.252603 1.143000 -7.125000 0.000000 0.000000 -7.010100 33.611600 1.970100 -4.236854 7.624458 -0.787807 21.367144 45.315889 -0.980535 -45.809303 47.079607 -20.302692 -1.232283 0.041563 -7.106806 -24.131057 9.690216 -4.020700 7.125000 0.000000 0.000000 2.891100 -19.611200 1.755200 
4.518978 11.598816 25.053863 -1.313601 -3.933928 98.380943 0.356299 -2.606098 -1.286852 -11.395002 -8.986171 -18.356476 0.663284 10.518304 26.357097 -1.222317 10.674339 7.197572 0.050800 -1.454000 -3.998900 -3.376847 2.157194 -1.943487 21.976081 7.373767 -15.677051 -1.643543 -10.985674 27.867891 0.524681 -9.380163 -5.427494 -0.009700 0.635200 -1.745600 -2.353844 1.039455 1.989620 0.878904 0.977543 -7.236316 1.906075 0.580600 -11.351192 -10.499653 -6.831385 -20.151309 7.454763 -5.678335 2.161169 3.396100 -2.747700 9.846100 5.453051 -6.426043 -0.933161 -31.465966 -49.817928 -3.080029 52.054083 -46.850943 -26.261928 0.630231 -0.291098 3.416378 18.186988 2.548035 0.892600 -7.125000 0.000000 0.000000 -7.346000 32.880500 2.196700 -4.279132 7.694056 -0.833445 19.712702 45.838522 -2.201097 -45.598414 47.087892 -20.191785 -1.216932 0.066255 -6.916258 -23.726805 9.727492 -3.951400 7.125000 0.000000 0.000000 3.167600 -19.625500 1.922600 
